<svg viewBox="0 0 24 24"><path d="M4 12.2 L14.4 9.2 L14.4 9.2 L14.4 9.2 L14.4 9.7 L13.4 7.7 L12.4 7.7 L12.4 7.7 L11.7 7.3"/><path fill="none" stroke="black" stroke-width="0.3" stroke-opacity="1" filling="0" d="M12.1 5.6 L14.3 5.6 L12.3 5.6"/><path fill="none" stroke="black" stroke-width="0.3" stroke-opacity="1" filling="0" d="M14.1 7.2 L12.1 7.2 L12.4 8.1 L12.5 8.1 L11.3 7.8"/><path fill="none" stroke="black" stroke-width="0.3" stroke-opacity="1" filling="0" d="M17.1 8.2 L17.9 9.2 L17.4 9.2 L17.2 11.6 L15.1 12.6 L13.1 14.8 L13.1 14.9 L13.9 16.9 L13.9 14.6 L13.9 14.4 L12.9 14.4 L12.9 14.4 L12.4 14.4 L12.4 14.3 L13.4 8.3 L14.4 8.2"/></svg>